<?xml version="1.0" encoding="UTF-8"?>
<svg xmlns="http://www.w3.org/2000/svg" viewBox="0 0 35.28 30.54">
    <polygon fill="#00A4FF" points="9.15 .21 7.94 13.95 13.53 30.14 14.77 15.91 9.15 .21"/>
    <path fill="#00A4FF" d="m22.12,8.7l-.89,10.15,6.3,11.48s.48-5.46.86-9.89l-6.27-11.75Z"/>
    <path fill="#FF00CF"
          d="m7.27.02C4.63-.21,2.28,1.75,2.05,4.4L0,27.76c-.12,1.32.87,2.49,2.19,2.61l1.86.16c1.32.12,2.49-.87,2.61-2.19l1.27-14.4L9.15.21,7.27.02Z"/>
    <path fill="#FF00CF"
          d="m20.25,8.54c-2.65-.23-4.99,1.73-5.22,4.38l-.26,2.99-1.25,14.23,1.86.16c2.65.23,4.99-1.73,5.22-4.38l.62-7.07.89-10.15-1.86-.16Z"/>
    <path fill="#FF00CF"
          d="m32.3,15.16h-.09c-1.85-.15-3.47,1.21-3.63,3.05-.06.69-.12,1.45-.19,2.23-.38,4.43-.86,9.89-.86,9.89,3.68.32,6.93-2.4,7.25-6.08.17-1.93.35-3.95.49-5.56.16-1.79-1.16-3.36-2.97-3.53Z"/>
</svg>