<?xml version="1.0" encoding="UTF-8"?>
<svg id="_Слой_2" data-name="Слой 2" xmlns="http://www.w3.org/2000/svg" viewBox="0 0 45 45">
  <defs>
    <style>
      .cls-1 {
        fill: #65cddb;
        fill-rule: evenodd;
        stroke-width: 0px;
      }
    </style>
  </defs>
  <g id="_Слой_1-2" data-name="Слой 1">
    <path class="cls-1" d="m22.5,45c12.43,0,22.5-10.07,22.5-22.5S34.93,0,22.5,0,0,10.07,0,22.5s10.07,22.5,22.5,22.5Zm-3.38-11.27c0-1.95,1.48-3.35,3.35-3.35s3.4,1.4,3.4,3.35-1.48,3.4-3.4,3.4-3.35-1.44-3.35-3.4Zm1.51-24.73c-.62,0-1.12.5-1.12,1.13,0,.02,0,.03,0,.05l.69,15.75c.03.6.52,1.08,1.12,1.08h2.35c.6,0,1.1-.47,1.12-1.08l.69-15.75c.03-.62-.45-1.15-1.07-1.17-.02,0-.03,0-.05,0h-3.72Z"/>
  </g>
</svg>