<?xml version="1.0" encoding="UTF-8"?>
<svg id="_Слой_2" data-name="Слой 2" xmlns="http://www.w3.org/2000/svg" viewBox="0 0 45 45">
  <defs>
    <style>
      .cls-1 {
        fill: #59ba4a;
        stroke-width: 0px;
      }
    </style>
  </defs>
  <g id="_Слой_1-2" data-name="Слой 1">
    <path class="cls-1" d="m22.5,0c12.43,0,22.5,10.07,22.5,22.5s-10.07,22.5-22.5,22.5S0,34.93,0,22.5,10.07,0,22.5,0Zm-2.8,26.94l-5-5c-.75-.75-1.98-.75-2.73,0-.75.75-.75,1.98,0,2.73l6.36,6.36c.75.75,1.96.76,2.72.01,0,0,0,0,.01-.01l13.18-13.18c.76-.75.77-1.97.02-2.73-.75-.76-1.97-.77-2.73-.02,0,0-.01.01-.02.02l-11.82,11.82h0Z"/>
  </g>
</svg>